<?xml version="1.0" standalone="no"?>
<!DOCTYPE svg PUBLIC "-//W3C//DTD SVG 20010904//EN"
 "http://www.w3.org/TR/2001/REC-SVG-20010904/DTD/svg10.dtd">
<svg version="1.0" xmlns="http://www.w3.org/2000/svg"
 width="260.000000pt" height="260.000000pt" viewBox="0 0 260.000000 260.000000"
 preserveAspectRatio="xMidYMid meet">
<metadata>
Created by potrace 1.11, written by Peter Selinger 2001-2013
</metadata>
<g transform="translate(0.000000,260.000000) scale(0.100000,-0.100000)"
fill="#000000" stroke="none">
<path d="M1505 2590 c3 -5 -3 -11 -14 -15 -10 -3 -29 -15 -42 -26 -12 -11 -29
-17 -36 -14 -9 3 -11 0 -7 -7 5 -8 1 -9 -12 -4 -10 4 -15 4 -12 0 11 -11 -21
-36 -38 -30 -8 3 -12 2 -9 -3 7 -12 -35 -42 -47 -35 -4 3 -8 0 -8 -6 0 -7 -7
-10 -15 -6 -9 3 -15 0 -15 -10 0 -10 -6 -14 -15 -10 -8 3 -14 0 -12 -7 1 -7
-8 -12 -20 -11 -13 0 -21 -2 -18 -4 7 -7 -36 -42 -45 -37 -4 3 -10 -2 -14 -10
-3 -8 -10 -15 -16 -15 -6 0 -18 -7 -27 -15 -8 -8 -18 -13 -23 -10 -4 3 -11 -2
-14 -11 -3 -8 -10 -12 -16 -9 -5 3 -10 2 -10 -4 0 -6 -8 -8 -17 -4 -10 3 -15
3 -11 -2 6 -6 -54 -55 -68 -55 -3 0 -22 -12 -42 -27 l-37 -27 40 42 c22 23 45
40 53 37 7 -2 10 0 7 5 -8 13 71 64 86 54 7 -4 10 -3 6 3 -4 5 5 16 18 23 27
14 31 25 15 35 -5 3 -10 15 -10 26 0 11 -4 18 -8 15 -4 -2 -14 5 -22 17 -12
20 -12 21 3 9 13 -11 15 -11 13 0 -2 14 -14 18 -34 11 -7 -3 -20 1 -30 8 -15
11 -15 11 -4 -1 11 -12 5 -18 -35 -36 -35 -16 -50 -19 -55 -11 -5 8 -8 6 -8
-5 0 -15 -34 -35 -52 -30 -5 1 -8 -2 -8 -6 0 -13 -50 -33 -62 -26 -6 4 -8 2
-5 -3 4 -6 -4 -18 -18 -27 -14 -9 -25 -13 -25 -9 0 4 -7 -2 -16 -13 -8 -10
-13 -12 -9 -4 4 8 -2 5 -13 -7 -11 -13 -23 -23 -26 -23 -3 0 -14 -8 -24 -17
-41 -39 -67 -57 -77 -54 -5 1 -7 0 -3 -4 3 -4 -19 -32 -50 -64 -188 -191 -320
-464 -350 -726 -9 -76 -9 -255 1 -320 45 -325 235 -636 494 -808 205 -136 471
-205 683 -175 104 14 123 18 204 45 263 86 467 289 561 558 9 28 20 57 23 65
3 8 4 23 3 33 -1 9 3 17 10 17 10 0 10 3 1 12 -9 9 -8 16 6 32 9 11 11 16 4
12 -9 -6 -11 3 -7 38 4 31 2 46 -6 46 -9 0 -9 3 0 14 8 10 9 16 1 21 -6 4 -9
1 -8 -7 2 -7 -3 -12 -10 -10 -8 1 -11 -2 -7 -8 5 -9 -55 -15 -70 -7 -3 1 -22
-28 -44 -65 -21 -37 -45 -74 -52 -83 -35 -42 -50 -55 -58 -50 -5 2 -8 -3 -7
-13 0 -9 -5 -16 -12 -14 -6 1 -11 -4 -10 -10 2 -7 -5 -12 -14 -12 -10 1 -16
-2 -13 -6 7 -11 -32 -43 -44 -36 -5 4 -13 1 -17 -5 -4 -8 -3 -9 4 -5 19 11 14
-5 -5 -20 -23 -17 -36 -18 -28 -1 4 6 -2 1 -13 -12 -11 -13 -24 -21 -31 -17
-6 4 -11 1 -11 -9 0 -9 -4 -13 -10 -10 -5 3 -10 1 -10 -4 0 -6 -8 -11 -18 -11
-10 0 -24 -6 -31 -12 -10 -9 -12 -9 -7 -1 4 8 -2 10 -21 7 -15 -3 -30 -8 -33
-11 -3 -3 5 -3 18 0 12 3 22 1 22 -4 0 -5 -6 -9 -12 -10 -7 0 -22 -3 -33 -5
-11 -3 -27 -6 -35 -6 -8 0 -20 -5 -27 -10 -7 -5 -14 -5 -18 2 -3 5 -1 10 5 10
6 0 8 5 3 12 -12 20 -14 48 -3 48 6 0 10 5 10 11 0 5 -6 7 -12 3 -9 -5 -9 -2
1 9 7 9 10 17 5 17 -5 0 -9 18 -10 40 0 22 4 40 9 40 4 0 5 5 1 11 -10 17 -12
109 -2 109 5 0 5 8 1 18 -11 22 -9 134 2 151 6 10 4 12 -6 6 -12 -8 -12 -6 0
8 7 9 10 17 5 17 -5 0 -9 18 -10 40 0 22 4 40 8 40 4 0 8 5 8 11 0 5 -6 7 -12
3 -10 -6 -10 -4 0 8 10 13 10 17 0 20 -10 4 -10 8 1 21 7 10 9 17 4 17 -12 0
-11 73 2 83 7 4 7 10 0 15 -13 9 -20 46 -7 38 5 -3 9 1 9 9 0 8 -3 15 -6 15
-3 0 -6 18 -7 40 0 22 4 40 8 40 4 0 8 5 8 11 0 5 -6 7 -12 3 -10 -6 -10 -4 0
8 10 13 10 17 0 20 -10 4 -10 8 1 21 7 10 9 17 4 17 -12 0 -11 73 2 83 7 4 7
10 0 15 -12 8 -14 262 -2 262 4 0 7 5 7 11 0 5 -6 7 -12 3 -9 -5 -9 -2 1 9 7
9 10 17 5 17 -5 0 -9 18 -10 40 0 22 4 40 8 40 4 0 8 5 8 11 0 5 -6 7 -12 3
-9 -5 -9 -2 1 9 10 13 10 17 1 17 -9 0 -9 4 1 17 9 11 10 14 2 9 -9 -5 -11 -2
-7 8 5 12 17 9 72 -19 89 -45 198 -94 245 -111 l38 -13 102 106 c56 58 122
126 146 152 24 25 68 71 98 102 51 52 53 57 42 82 -7 15 -16 24 -22 20 -5 -3
-6 4 -2 18 4 17 3 20 -3 10 -7 -9 -12 -10 -16 -2 -5 7 -15 4 -29 -10 -12 -12
-37 -33 -56 -47 l-33 -26 -21 24 -20 25 8 -25 c7 -22 6 -23 -8 -12 -9 8 -13
21 -10 30 4 13 2 12 -10 -3 -13 -17 -17 -17 -32 -5 -9 8 -23 15 -31 16 -7 1
-28 9 -45 18 -18 9 -38 16 -46 16 -7 0 -13 5 -13 10 0 6 -6 10 -13 10 -7 0
-22 8 -33 18 -11 10 -26 16 -34 14 -13 -5 -13 -3 0 14 8 10 10 16 6 12 -5 -4
-15 0 -22 10 -12 15 -12 14 -8 -8 4 -17 3 -21 -4 -12 -5 8 -13 13 -18 13 -5 0
-19 9 -32 19 -12 11 -26 20 -31 20 -11 0 -25 30 -22 50 2 13 1 13 -8 0 -7 -10
-6 -19 2 -30 11 -13 10 -13 -8 0 -11 8 -28 21 -38 29 -20 16 -50 24 -42 11z
m-204 -433 c5 -128 0 -1637 -5 -1646 -9 -15 -97 -4 -108 13 -5 7 -8 7 -8 -3 0
-8 -6 -11 -17 -6 -10 4 -25 8 -33 10 -8 2 -15 4 -15 5 0 1 -11 4 -25 6 -13 3
-29 9 -34 14 -6 6 -16 10 -24 10 -24 0 -133 73 -128 86 3 7 -2 10 -15 7 -15
-4 -19 0 -20 18 0 13 -3 19 -5 12 -6 -14 -54 28 -54 47 0 7 -3 10 -7 7 -11
-12 -42 24 -36 41 4 10 2 13 -5 8 -7 -4 -12 -1 -12 9 0 10 -5 14 -12 10 -7 -4
-2 3 12 15 22 19 22 20 3 11 -27 -14 -36 -14 -28 -1 3 6 1 10 -5 10 -6 0 -8 5
-5 10 4 6 11 8 16 5 5 -4 9 -2 9 3 0 5 110 55 245 112 134 56 244 105 243 109
0 3 0 50 1 104 1 75 4 97 14 91 9 -6 9 -4 0 7 -18 18 -18 123 0 113 10 -6 10
-4 0 7 -7 7 -13 37 -13 67 0 40 3 51 13 46 10 -6 10 -4 0 7 -7 7 -13 37 -13
67 0 40 3 51 13 46 10 -6 10 -4 0 7 -7 7 -13 37 -13 67 0 40 3 51 13 46 10 -6
10 -4 0 7 -7 7 -13 37 -13 67 0 40 3 51 13 46 10 -6 10 -4 0 7 -7 7 -13 37
-13 67 0 40 3 51 13 46 10 -6 10 -4 0 7 -7 7 -13 37 -13 67 0 40 3 51 13 46
10 -6 10 -4 0 7 -7 7 -13 32 -13 56 l0 42 35 -20 c22 -13 35 -29 36 -42z
m-536 -652 c0 -389 -2 -445 -15 -446 -10 0 -11 -2 -2 -6 19 -7 14 -20 -10 -26
-13 -4 -27 -6 -32 -6 -5 1 -12 -4 -16 -10 -3 -6 -16 -13 -29 -16 -12 -2 -19 0
-16 5 3 4 0 10 -6 12 -7 2 -12 18 -13 36 0 18 -4 32 -7 32 -3 0 -6 6 -7 13 -2
27 -10 63 -17 80 -4 10 -3 17 5 17 7 0 5 6 -5 16 -10 11 -13 19 -6 23 6 4 7
12 1 21 -6 8 -10 24 -10 35 0 17 2 17 10 5 5 -8 10 -10 10 -4 0 6 -6 16 -12
22 -18 15 -11 274 9 337 4 11 8 34 9 50 3 45 3 47 12 41 5 -3 6 9 4 26 -4 23
-2 29 8 23 9 -5 11 -4 6 3 -4 6 -1 30 5 52 10 33 23 47 68 75 30 19 56 35 56
35 0 0 0 -200 0 -445z"/>
<path d="M776 773 c-6 -14 -5 -15 5 -6 7 7 10 15 7 18 -3 3 -9 -2 -12 -12z"/>
<path d="M790 749 c0 -5 5 -7 10 -4 6 3 10 8 10 11 0 2 -4 4 -10 4 -5 0 -10
-5 -10 -11z"/>
<path d="M834 719 c-4 -7 -3 -9 4 -5 5 3 13 0 15 -6 4 -9 6 -10 6 -1 1 17 -16
25 -25 12z"/>
<path d="M948 623 c7 -3 16 -2 19 1 4 3 -2 6 -13 5 -11 0 -14 -3 -6 -6z"/>
<path d="M990 626 c0 -2 7 -7 16 -10 8 -3 12 -2 9 4 -6 10 -25 14 -25 6z"/>
<path d="M980 603 c0 -14 39 -38 47 -29 3 3 -3 9 -13 13 -10 3 -22 11 -26 17
-5 8 -8 7 -8 -1z"/>
<path d="M1040 576 c0 -2 7 -9 15 -16 9 -7 15 -8 15 -2 0 5 -7 12 -15 16 -8 3
-15 4 -15 2z"/>
<path d="M1115 540 c3 -5 8 -10 11 -10 2 0 4 5 4 10 0 6 -5 10 -11 10 -5 0 -7
-4 -4 -10z"/>
<path d="M1140 546 c0 -2 7 -9 15 -16 9 -7 15 -8 15 -2 0 5 -7 12 -15 16 -8 3
-15 4 -15 2z"/>
<path d="M1256 522 c-3 -4 4 -9 15 -9 23 -2 25 3 4 10 -8 4 -16 3 -19 -1z"/>
<path d="M640 1060 c-12 -7 -12 -11 -2 -20 6 -5 10 -7 7 -4 -3 4 0 13 6 21 13
15 10 16 -11 3z"/>
<path d="M1551 2593 c-1 -17 16 -25 25 -12 4 7 3 9 -4 5 -5 -3 -13 0 -15 6 -4
9 -6 10 -6 1z"/>
<path d="M1615 2581 c-3 -5 2 -17 11 -25 22 -22 31 -20 11 2 -10 10 -14 22
-10 25 3 4 4 7 0 7 -3 0 -8 -4 -12 -9z"/>
<path d="M1656 2533 c-6 -14 -5 -15 5 -6 7 7 10 15 7 18 -3 3 -9 -2 -12 -12z"/>
<path d="M1674 2519 c-3 -6 -2 -15 3 -20 5 -5 9 -1 10 11 2 22 -2 25 -13 9z"/>
<path d="M1758 2472 c4 -10 7 -12 10 -4 2 7 9 9 15 5 7 -3 8 -2 4 2 -14 16
-36 14 -29 -3z"/>
<path d="M1810 2443 c0 -19 57 -43 69 -29 7 8 1 12 -21 13 -17 0 -34 7 -39 14
-6 9 -9 10 -9 2z"/>
<path d="M2156 2442 c-3 -5 1 -9 9 -9 8 0 12 4 9 9 -3 4 -7 8 -9 8 -2 0 -6 -4
-9 -8z"/>
<path d="M850 2399 c0 -5 5 -7 10 -4 6 3 10 8 10 11 0 2 -4 4 -10 4 -5 0 -10
-5 -10 -11z"/>
<path d="M1890 2399 c0 -5 5 -7 10 -4 6 3 10 8 10 11 0 2 -4 4 -10 4 -5 0 -10
-5 -10 -11z"/>
<path d="M1926 2399 c2 -4 13 -7 24 -6 23 2 17 10 -10 12 -10 1 -17 -2 -14 -6z"/>
<path d="M1950 2369 c0 -5 5 -7 10 -4 6 3 10 8 10 11 0 2 -4 4 -10 4 -5 0 -10
-5 -10 -11z"/>
<path d="M1465 560 c-3 -6 1 -7 9 -4 18 7 21 14 7 14 -6 0 -13 -4 -16 -10z"/>
</g>
</svg>
